<?xml version="1.0" encoding="utf-8"?>
<!-- Generator: Adobe Illustrator 22.1.0, SVG Export Plug-In . SVG Version: 6.00 Build 0)  -->
<svg version="1.1" id="Layer_1" xmlns="http://www.w3.org/2000/svg" xmlns:xlink="http://www.w3.org/1999/xlink" x="0px" y="0px"
	 viewBox="0 0 421.1 204" style="enable-background:new 0 0 421.1 204;" xml:space="preserve">
<title>Slice 1</title>
<desc>Created with Sketch.</desc>
<g id="Page-1">
	<path id="MACHINE" d="M174.6,115.9c0.8,0,1.5,0.3,2,0.8c0.5,0.5,0.7,1.3,0.6,2.2l-2.3,28.7c-0.1,0.9-0.4,1.5-0.9,2
		c-0.5,0.5-1.2,0.7-2,0.7s-1.4-0.3-1.9-0.8s-0.7-1.2-0.6-2.1l1.5-19.6l-9.3,15.3c-0.4,0.7-0.9,1.2-1.4,1.5c-0.5,0.3-1,0.5-1.6,0.5
		c-0.6,0-1.1-0.2-1.6-0.5c-0.4-0.3-0.8-0.8-1.2-1.5l-7-15l-1.5,19.4c-0.1,0.8-0.4,1.5-0.9,2c-0.5,0.5-1.2,0.8-2,0.8
		c-0.8,0-1.4-0.3-1.9-0.8c-0.5-0.5-0.7-1.2-0.6-2.1l2.3-28.5c0.1-0.9,0.4-1.6,1-2.2c0.6-0.6,1.3-0.8,2.2-0.8c1.2,0,2.2,0.7,2.8,2.1
		l8.9,20.1l12.3-20.2C172.3,116.5,173.3,115.9,174.6,115.9z M212.9,146.5c0.1,0.3,0.2,0.6,0.2,1c0,0.8-0.3,1.5-0.9,2
		c-0.6,0.5-1.3,0.8-2.1,0.8c-0.5,0-1-0.1-1.5-0.4c-0.4-0.3-0.8-0.7-1-1.3l-2.3-6.4h-16.6l-3.3,6.5c-0.3,0.5-0.7,1-1.1,1.2
		c-0.4,0.3-0.9,0.4-1.5,0.4c-0.7,0-1.4-0.2-2-0.7c-0.6-0.5-0.9-1.1-0.9-1.8c0-0.5,0.1-1,0.4-1.4l15.1-28.3c0.4-0.6,0.8-1.1,1.4-1.5
		c0.6-0.4,1.3-0.5,2-0.5c0.7,0,1.4,0.2,1.9,0.6c0.6,0.4,1,0.9,1.3,1.5L212.9,146.5z M191.2,137.3h12.4l-5.1-14.4L191.2,137.3z
		 M232.3,150.4c-3.1,0-5.9-0.6-8.2-1.9c-2.3-1.3-4.1-3.2-5.4-5.6c-1.2-2.4-1.9-5.3-1.9-8.6c0-3.7,0.7-7,2.1-9.8c1.4-2.8,3.4-5,6-6.5
		c2.6-1.5,5.6-2.3,9.1-2.3c2.2,0,4.3,0.3,6.2,0.9s3.4,1.4,4.6,2.3c0.9,0.6,1.4,1.4,1.4,2.4c0,0.7-0.2,1.3-0.6,1.8
		c-0.4,0.5-1,0.7-1.7,0.7c-0.6,0-1.1-0.2-1.6-0.5c-2.3-1.8-5-2.6-8.1-2.6c-3.5,0-6.2,1.2-8.2,3.6c-2,2.4-2.9,5.7-2.9,10
		c0,3.6,0.8,6.3,2.5,8.2s4,2.9,7,2.9c2.8,0,5.5-0.9,8.1-2.6c0.5-0.3,1.1-0.5,1.5-0.5c0.6,0,1.1,0.2,1.5,0.7s0.6,1,0.6,1.6
		c0,1-0.4,1.8-1.2,2.4c-1.2,1-2.8,1.9-4.7,2.5S234.5,150.4,232.3,150.4z M278.2,115.9c0.9,0,1.6,0.3,2.2,0.8
		c0.5,0.6,0.7,1.3,0.7,2.2l-2.2,28.2c-0.1,0.9-0.4,1.7-1,2.2s-1.4,0.8-2.3,0.8s-1.6-0.3-2.2-0.8s-0.7-1.3-0.7-2.3l1-11.9h-17.3
		l-1,11.9c-0.1,0.9-0.4,1.7-1,2.2c-0.6,0.6-1.3,0.8-2.2,0.8c-0.9,0-1.6-0.3-2.2-0.8c-0.5-0.6-0.7-1.3-0.7-2.3l2.3-28.2
		c0.1-0.9,0.4-1.7,1-2.2s1.3-0.8,2.3-0.8s1.6,0.3,2.2,0.8c0.5,0.6,0.7,1.3,0.7,2.2l-0.9,11.3h17.3l0.9-11.4c0.1-0.9,0.4-1.7,1-2.2
		C276.6,116.2,277.3,115.9,278.2,115.9z M289.1,150.3c-0.9,0-1.7-0.3-2.2-0.8c-0.5-0.6-0.8-1.3-0.7-2.3l2.3-28.2
		c0.1-0.9,0.4-1.7,1-2.2s1.4-0.8,2.3-0.8s1.7,0.3,2.2,0.8c0.5,0.6,0.8,1.3,0.7,2.2l-2.2,28.2c-0.1,0.9-0.4,1.7-1,2.2
		S290,150.3,289.1,150.3z M327.7,115.9c0.9,0,1.6,0.3,2.1,0.8c0.5,0.6,0.7,1.3,0.6,2.2l-2.2,28.3c-0.1,0.9-0.4,1.7-0.9,2.2
		s-1.3,0.8-2.1,0.8c-1,0-1.8-0.4-2.4-1.2l-15.6-22.6l-1.7,20.7c-0.1,0.9-0.4,1.7-0.9,2.2c-0.6,0.5-1.3,0.8-2.2,0.8
		c-0.8,0-1.5-0.3-2-0.9s-0.7-1.3-0.6-2.3l2.2-28.2c0.1-0.9,0.4-1.6,1-2.2c0.6-0.6,1.3-0.8,2.1-0.8c1.1,0,1.8,0.4,2.4,1.2l15.6,22.6
		l1.6-20.7c0.1-0.9,0.4-1.6,1-2.2C326.2,116.2,326.9,115.9,327.7,115.9z M343.7,121.1l-0.7,9.3h13.2c0.9,0,1.5,0.2,2,0.6
		s0.7,1,0.7,1.7c0,1.7-1,2.5-3,2.5h-13.4l-0.8,9.9H356c0.9,0,1.5,0.2,2,0.6c0.5,0.4,0.7,1,0.7,1.7c0,0.8-0.3,1.5-0.8,1.9
		c-0.5,0.4-1.3,0.6-2.3,0.6h-17.4c-1,0-1.7-0.3-2.1-0.8c-0.5-0.5-0.7-1.2-0.6-2.2l2.2-28c0.1-0.9,0.4-1.6,0.9-2.1s1.3-0.8,2.2-0.8
		h17.4c0.9,0,1.5,0.2,2,0.6c0.5,0.4,0.7,1,0.7,1.7c0,1.7-1,2.6-3,2.6H343.7z"/>
	<path id="TIME" d="M167.8,99.2c-0.9,0-1.7-0.3-2.2-0.8s-0.8-1.3-0.7-2.2l2.1-25.9h-8.7c-0.9,0-1.6-0.2-2-0.6s-0.7-1-0.7-1.8
		c0-1.8,1-2.7,3.1-2.7h23.6c0.9,0,1.6,0.2,2,0.6c0.5,0.4,0.7,1,0.7,1.8c0,1.8-1,2.7-3.1,2.7h-8.7l-2.1,26c-0.1,0.9-0.4,1.7-1,2.2
		C169.5,99,168.8,99.2,167.8,99.2z M189.3,99.3c-0.9,0-1.7-0.3-2.2-0.8c-0.5-0.6-0.8-1.3-0.7-2.3l2.3-28.2c0.1-0.9,0.4-1.7,1-2.2
		c0.6-0.5,1.4-0.8,2.3-0.8s1.7,0.3,2.2,0.8c0.5,0.6,0.8,1.3,0.7,2.2l-2.2,28.2c-0.1,0.9-0.4,1.7-1,2.2C191,99,190.2,99.3,189.3,99.3
		z M232.5,64.9c0.8,0,1.5,0.3,2,0.8c0.5,0.5,0.7,1.3,0.6,2.2l-2.3,28.7c-0.1,0.9-0.4,1.5-0.9,2c-0.5,0.5-1.2,0.7-2,0.7
		s-1.4-0.3-1.9-0.8c-0.5-0.5-0.7-1.2-0.6-2.1l1.5-19.6l-9.3,15.3c-0.4,0.7-0.9,1.2-1.4,1.5c-0.5,0.3-1,0.5-1.6,0.5
		c-0.6,0-1.1-0.2-1.6-0.5c-0.4-0.3-0.8-0.8-1.2-1.5l-7-15l-1.5,19.4c-0.1,0.8-0.4,1.5-0.9,2c-0.5,0.5-1.2,0.8-2,0.8
		s-1.4-0.3-1.9-0.8c-0.5-0.5-0.7-1.2-0.6-2.1l2.3-28.5c0.1-0.9,0.4-1.6,1-2.2c0.6-0.6,1.3-0.8,2.2-0.8c1.2,0,2.2,0.7,2.8,2.1
		l8.9,20.1l12.3-20.2C230.2,65.5,231.2,64.9,232.5,64.9z M248.4,70.1l-0.7,9.3h13.2c0.9,0,1.5,0.2,2,0.6c0.5,0.4,0.7,1,0.7,1.7
		c0,1.7-1,2.5-3,2.5h-13.4l-0.8,9.9h14.3c0.9,0,1.5,0.2,2,0.6c0.5,0.4,0.7,1,0.7,1.7c0,0.8-0.3,1.5-0.8,1.9
		c-0.5,0.4-1.3,0.6-2.3,0.6H243c-1,0-1.7-0.3-2.1-0.8c-0.5-0.5-0.7-1.2-0.6-2.2l2.2-28c0.1-0.9,0.4-1.6,0.9-2.1
		c0.5-0.5,1.3-0.8,2.2-0.8H263c0.9,0,1.5,0.2,2,0.6c0.5,0.4,0.7,1,0.7,1.7c0,1.7-1,2.6-3,2.6H248.4z"/>
	<path id="AMSTERDAM" d="M148.5,39.5c0.1,0.3,0.2,0.6,0.2,1c0,0.8-0.3,1.5-0.9,2c-0.6,0.5-1.3,0.8-2.1,0.8c-0.5,0-1-0.1-1.5-0.4
		c-0.4-0.3-0.8-0.7-1-1.3l-2.3-6.4h-16.6l-3.3,6.5c-0.3,0.5-0.7,1-1.1,1.2c-0.4,0.3-0.9,0.4-1.5,0.4c-0.7,0-1.4-0.2-2-0.7
		c-0.6-0.5-0.9-1.1-0.9-1.8c0-0.5,0.1-1,0.4-1.4l15.1-28.3c0.4-0.6,0.8-1.1,1.4-1.5c0.6-0.4,1.3-0.5,2-0.5c0.7,0,1.4,0.2,1.9,0.6
		c0.6,0.4,1,0.9,1.3,1.5L148.5,39.5z M126.8,30.3h12.4l-5.1-14.4L126.8,30.3z M186.2,8.9c0.8,0,1.5,0.3,2,0.8
		c0.5,0.5,0.7,1.3,0.6,2.2l-2.3,28.7c-0.1,0.9-0.4,1.5-0.9,2s-1.2,0.7-2,0.7s-1.4-0.3-1.9-0.8c-0.5-0.5-0.7-1.2-0.6-2.1l1.5-19.6
		l-9.3,15.3c-0.4,0.7-0.9,1.2-1.4,1.5c-0.5,0.3-1,0.5-1.6,0.5c-0.6,0-1.1-0.2-1.6-0.5c-0.4-0.3-0.8-0.8-1.2-1.5l-7-15l-1.5,19.4
		c-0.1,0.8-0.4,1.5-0.9,2c-0.5,0.5-1.2,0.8-2,0.8s-1.4-0.3-1.9-0.8c-0.5-0.5-0.7-1.2-0.6-2.1l2.3-28.5c0.1-0.9,0.4-1.6,1-2.2
		c0.6-0.6,1.3-0.8,2.2-0.8c1.2,0,2.2,0.7,2.8,2.1l8.9,20.1l12.3-20.2C183.9,9.5,184.9,8.9,186.2,8.9z M205.8,43.4
		c-2.6,0-4.9-0.3-6.9-0.9c-2-0.6-3.8-1.4-5.2-2.4c-0.9-0.6-1.4-1.5-1.4-2.5c0-0.7,0.2-1.3,0.6-1.8c0.4-0.5,0.9-0.7,1.6-0.7
		c0.4,0,1,0.2,1.6,0.5c1.2,0.9,2.7,1.6,4.4,2.1s3.5,0.7,5.5,0.7c2.3,0,4.1-0.4,5.4-1.2s1.8-1.9,1.8-3.3c0-0.9-0.3-1.7-1-2.3
		c-0.7-0.6-1.5-1.1-2.5-1.5s-2.3-0.8-4-1.3c-2.3-0.7-4.2-1.3-5.7-2c-1.5-0.7-2.8-1.6-3.8-2.9s-1.6-3-1.6-5c0-2,0.6-3.8,1.7-5.4
		s2.7-2.7,4.7-3.6c2-0.8,4.4-1.2,7.2-1.2c2.3,0,4.5,0.3,6.5,1c2,0.6,3.7,1.5,4.9,2.6c0.7,0.6,1.1,1.3,1.1,2.1c0,0.7-0.2,1.3-0.6,1.8
		c-0.4,0.5-1,0.7-1.7,0.7c-0.6,0-1.2-0.2-1.8-0.6c-1.1-0.8-2.3-1.4-3.8-1.9c-1.5-0.5-3.1-0.7-4.7-0.7c-2.3,0-4.1,0.4-5.4,1.3
		c-1.3,0.8-1.9,2-1.9,3.5c0,1,0.3,1.8,1,2.5s1.5,1.2,2.5,1.6c1,0.4,2.4,0.8,4.2,1.4c2.3,0.7,4.2,1.3,5.7,1.9s2.7,1.6,3.7,2.8
		s1.5,2.8,1.5,4.8c0,3.1-1.2,5.6-3.6,7.4S210.1,43.4,205.8,43.4z M234.7,43.2c-0.9,0-1.7-0.3-2.2-0.8c-0.5-0.6-0.8-1.3-0.7-2.2
		l2.1-25.9h-8.7c-0.9,0-1.6-0.2-2-0.6c-0.5-0.4-0.7-1-0.7-1.8c0-1.8,1-2.7,3.1-2.7h23.6c0.9,0,1.6,0.2,2,0.6c0.5,0.4,0.7,1,0.7,1.8
		c0,1.8-1,2.7-3.1,2.7h-8.7l-2.1,26c-0.1,0.9-0.4,1.7-1,2.2C236.4,43,235.6,43.2,234.7,43.2z M261.4,14.1l-0.7,9.3h13.2
		c0.9,0,1.5,0.2,2,0.6s0.7,1,0.7,1.7c0,1.7-1,2.5-3,2.5h-13.4l-0.8,9.9h14.3c0.9,0,1.5,0.2,2,0.6c0.5,0.4,0.7,1,0.7,1.7
		c0,0.8-0.3,1.5-0.8,1.9c-0.5,0.4-1.3,0.6-2.3,0.6H256c-1,0-1.7-0.3-2.1-0.8c-0.5-0.5-0.7-1.2-0.6-2.2l2.2-28
		c0.1-0.9,0.4-1.6,0.9-2.1c0.5-0.5,1.3-0.8,2.2-0.8H276c0.9,0,1.5,0.2,2,0.6c0.5,0.4,0.7,1,0.7,1.7c0,1.7-1,2.6-3,2.6H261.4z
		 M308.1,39.3c0.2,0.4,0.3,0.8,0.3,1.3c0,0.8-0.3,1.4-1,2c-0.6,0.5-1.4,0.8-2.2,0.8c-0.5,0-1.1-0.1-1.6-0.4s-0.9-0.7-1.2-1.3
		l-4.8-9.4c-0.5-1-1.1-1.7-1.8-2.2c-0.7-0.4-1.6-0.6-2.8-0.6h-4.7l-0.8,10.8c-0.1,0.9-0.4,1.7-1,2.2c-0.6,0.6-1.4,0.8-2.3,0.8
		s-1.6-0.3-2.2-0.8c-0.5-0.6-0.7-1.3-0.7-2.3l2.2-28.1c0.1-0.9,0.4-1.6,0.9-2.2c0.6-0.5,1.3-0.8,2.2-0.8H299c3.5,0,6.2,0.8,8.1,2.5
		c1.9,1.7,2.9,4,2.9,7c0,6-3,9.4-9.1,10.3c0.8,0.2,1.5,0.6,2.1,1.2c0.6,0.6,1.1,1.4,1.6,2.4L308.1,39.3z M297.5,24.7
		c4.4,0,6.7-1.9,6.7-5.7c0-1.7-0.5-3-1.4-3.8c-1-0.8-2.4-1.2-4.4-1.2h-8.6l-0.8,10.7H297.5z M317.7,43c-0.9,0-1.6-0.3-2.1-0.8
		s-0.7-1.3-0.6-2.2l2.2-27.9c0.1-0.9,0.4-1.6,0.9-2.2c0.6-0.5,1.3-0.8,2.2-0.8h9.4c3.4,0,6.3,0.6,8.7,1.9s4.3,3.1,5.6,5.4
		c1.3,2.4,1.9,5.2,1.9,8.4c0,3.8-0.7,7.1-2.1,9.8c-1.4,2.7-3.5,4.8-6.2,6.2c-2.7,1.4-6,2.2-9.8,2.2H317.7z M327.4,38
		c8.2,0,12.3-4.4,12.3-13.2c0-3.5-0.9-6.1-2.7-7.9c-1.8-1.8-4.5-2.7-8.1-2.7h-5.9L321.3,38H327.4z M380.8,39.5
		c0.1,0.3,0.2,0.6,0.2,1c0,0.8-0.3,1.5-0.9,2c-0.6,0.5-1.3,0.8-2.1,0.8c-0.5,0-1-0.1-1.5-0.4c-0.4-0.3-0.8-0.7-1-1.3l-2.3-6.4h-16.6
		l-3.3,6.5c-0.3,0.5-0.7,1-1.1,1.2c-0.4,0.3-0.9,0.4-1.5,0.4c-0.7,0-1.4-0.2-2-0.7c-0.6-0.5-0.9-1.1-0.9-1.8c0-0.5,0.1-1,0.4-1.4
		l15.1-28.3c0.4-0.6,0.8-1.1,1.4-1.5c0.6-0.4,1.3-0.5,2-0.5c0.7,0,1.4,0.2,1.9,0.6c0.6,0.4,1,0.9,1.3,1.5L380.8,39.5z M359.1,30.3
		h12.4l-5.1-14.4L359.1,30.3z M418.5,8.9c0.8,0,1.5,0.3,2,0.8c0.5,0.5,0.7,1.3,0.6,2.2l-2.3,28.7c-0.1,0.9-0.4,1.5-0.9,2
		c-0.5,0.5-1.2,0.7-2,0.7c-0.8,0-1.4-0.3-1.9-0.8c-0.5-0.5-0.7-1.2-0.6-2.1l1.5-19.6l-9.3,15.3c-0.4,0.7-0.9,1.2-1.4,1.5
		c-0.5,0.3-1,0.5-1.6,0.5c-0.6,0-1.1-0.2-1.6-0.5c-0.4-0.3-0.8-0.8-1.2-1.5l-7-15l-1.5,19.4c-0.1,0.8-0.4,1.5-0.9,2
		c-0.5,0.5-1.2,0.8-2,0.8c-0.8,0-1.4-0.3-1.9-0.8c-0.5-0.5-0.7-1.2-0.6-2.1l2.3-28.5c0.1-0.9,0.4-1.6,1-2.2c0.6-0.6,1.3-0.8,2.2-0.8
		c1.2,0,2.2,0.7,2.8,2.1l8.9,20.1l12.3-20.2C416.2,9.5,417.2,8.9,418.5,8.9z"/>
	<g id="Group-3" transform="translate(0.000000, 4.000000)">
		
			<rect id="Rectangle-2" x="54.1" y="34.6" transform="matrix(0.7071 -0.7071 0.7071 0.7071 -21.7444 56.7383)" width="7" height="40"/>
		
			<rect id="Rectangle-2_1_" x="65.6" y="123.8" transform="matrix(0.1045 -0.9945 0.9945 0.1045 -49.9324 199.057)" width="40" height="7"/>
		
			<rect id="Rectangle-2_2_" x="65.6" y="126.8" transform="matrix(0.1045 -0.9945 0.9945 0.1045 -52.916 201.7434)" width="40" height="7"/>
		<g id="Group-2">
			<g id="Group">
				<path id="Combined-Shape" d="M28.5,53C12.8,53,0,40.2,0,24.5S12.8-4,28.5-4S57,8.8,57,24.5S44.2,53,28.5,53z M28.4,45.7
					c11.8,0,21.4-9.6,21.4-21.4S40.2,3,28.4,3S7,12.5,7,24.4S16.5,45.7,28.4,45.7z"/>
			</g>
			<polygon id="Rectangle" points="35.6,12.5 40.5,17.4 21.4,36.5 16.5,31.6 			"/>
			<polygon id="Rectangle_1_" points="35.6,36.5 40.5,31.6 21.4,12.5 16.5,17.4 			"/>
		</g>
		<g id="Group-2_1_" transform="translate(53.000000, 147.000000)">
			<g id="Group_1_">
				<path id="Combined-Shape_1_" d="M28.5,53C12.8,53,0,40.2,0,24.5S12.8-4,28.5-4S57,8.8,57,24.5S44.2,53,28.5,53z M28.4,45.7
					c11.8,0,21.4-9.6,21.4-21.4S40.2,3,28.4,3S7,12.5,7,24.4S16.5,45.7,28.4,45.7z"/>
			</g>
			<polygon id="Rectangle_2_" points="35.6,12.5 40.5,17.4 21.4,36.5 16.5,31.6 			"/>
			<polygon id="Rectangle_3_" points="35.6,36.5 40.5,31.6 21.4,12.5 16.5,17.4 			"/>
		</g>
		<g id="Group-2_2_" transform="translate(60.000000, 61.000000)">
			<g id="Group_2_">
				<path id="Combined-Shape_2_" d="M28.5,53C12.8,53,0,40.2,0,24.5S12.8-4,28.5-4S57,8.8,57,24.5S44.2,53,28.5,53z M28.4,45.7
					c11.8,0,21.4-9.6,21.4-21.4S40.2,3,28.4,3S7,12.5,7,24.4S16.5,45.7,28.4,45.7z"/>
			</g>
			<polygon id="Rectangle_4_" points="35.6,12.5 40.5,17.4 21.4,36.5 16.5,31.6 			"/>
			<polygon id="Rectangle_5_" points="35.6,36.5 40.5,31.6 21.4,12.5 16.5,17.4 			"/>
		</g>
	</g>
</g>
</svg>
